{
  "source": "C:\\Users\\Peter\\Desktop\\stuff\\MIUN\\quantitative_research\\video_compression\\videos\\BVI-HD\\BVI-HD_CDVL_videos\\ORIG\\PlasmaAveragePan_1920x1080_60fps.mp4",
  "output": "C:\\Users\\Peter\\Desktop\\stuff\\MIUN\\quantitative_research\\video_compression\\compressed_videos\\BVI-HD\\vp9\\2.5\\PlasmaAveragePan_1920x1080_60fps_vp9.webm",
  "codec": "vp9",
  "ok": "Input #0, mov,mp4,m4a,3gp,3g2,mj2, from 'C:\\Users\\Peter\\Desktop\\stuff\\MIUN\\quantitative_research\\video_compression\\videos\\BVI-HD\\BVI-HD_CDVL_videos\\ORIG\\PlasmaAveragePan_1920x1080_60fps.mp4':\n  Metadata:\n    major_brand     : isom\n    minor_version   : 512\n    compatible_brands: isomiso2avc1mp41\n    encoder         : Lavf54.28.101\n  Duration: 00:00:05.00, start: 0.000000, bitrate: 73730 kb/s\n  Stream #0:0[0x1](und): Video: h264 (High 4:4:4 Predictive) (avc1 / 0x31637661), yuv420p(progressive), 1920x1080, 73727 kb/s, 60 fps, 60 tbr, 60 tbn (default)\n    Metadata:\n      handler_name    : VideoHandler\n      vendor_id       : [0][0][0][0]\n[out#0/webm @ 000001a872717840] Codec AVOption b:a (set bitrate (in bits/s)) has not been used for any stream. The most likely reason is either wrong type (e.g. a video option with no video streams) or that it is a private option of some decoder which was not actually used for any stream.\nStream mapping:\n  Stream #0:0 -> #0:0 (h264 (native) -> vp9 (libvpx-vp9))\nPress [q] to stop, [?] for help\n[libvpx-vp9 @ 000001a872602040] v1.15.2-100-g40561f514\nOutput #0, webm, to 'C:\\Users\\Peter\\Desktop\\stuff\\MIUN\\quantitative_research\\video_compression\\compressed_videos\\BVI-HD\\vp9\\2.5\\PlasmaAveragePan_1920x1080_60fps_vp9.webm':\n  Metadata:\n    major_brand     : isom\n    minor_version   : 512\n    compatible_brands: isomiso2avc1mp41\n    encoder         : Lavf62.3.100\n  Stream #0:0(und): Video: vp9, yuv420p(tv, progressive), 1920x1080, q=2-31, 2500 kb/s, 60 fps, 1k tbn (default)\n    Metadata:\n      encoder         : Lavc62.11.100 libvpx-vp9\n      handler_name    : VideoHandler\n      vendor_id       : [0][0][0][0]\n    Side data:\n      cpb: bitrate max/min/avg: 0/0/0 buffer size: 2500000 vbv_delay: N/A\nframe=    1 fps=0.0 q=32.0 size=       1KiB time=00:00:00.01 bitrate= 303.8kbits/s speed=0.0318x elapsed=0:00:00.52    \nframe=    9 fps=8.7 q=51.0 size=       1KiB time=00:00:00.15 bitrate=  33.8kbits/s speed=0.145x elapsed=0:00:01.03    \nframe=   16 fps= 10 q=47.0 size=       1KiB time=00:00:00.26 bitrate=  19.0kbits/s speed=0.172x elapsed=0:00:01.55    \nframe=   23 fps= 11 q=47.0 size=       1KiB time=00:00:00.38 bitrate=  13.2kbits/s speed=0.185x elapsed=0:00:02.07    \nframe=   31 fps= 12 q=47.0 size=       1KiB time=00:00:00.51 bitrate=   9.8kbits/s speed=0.197x elapsed=0:00:02.62    \nframe=   39 fps= 12 q=49.0 size=       1KiB time=00:00:00.63 bitrate=   8.0kbits/s speed=0.201x elapsed=0:00:03.14    \nframe=   44 fps= 12 q=49.0 size=       1KiB time=00:00:00.73 bitrate=   6.9kbits/s speed=0.199x elapsed=0:00:03.67    \nframe=   49 fps= 12 q=29.0 size=       1KiB time=00:00:00.81 bitrate=   6.2kbits/s speed=0.195x elapsed=0:00:04.18    \nframe=   55 fps= 12 q=49.0 size=       1KiB time=00:00:00.91 bitrate=   5.5kbits/s speed=0.195x elapsed=0:00:04.70    \nframe=   62 fps= 12 q=49.0 size=       1KiB time=00:00:01.03 bitrate=   4.9kbits/s speed=0.196x elapsed=0:00:05.26    \nframe=   69 fps= 12 q=50.0 size=       1KiB time=00:00:01.15 bitrate=   4.4kbits/s speed=0.198x elapsed=0:00:05.80    \nframe=   76 fps= 12 q=51.0 size=       1KiB time=00:00:01.26 bitrate=   4.0kbits/s speed=0.199x elapsed=0:00:06.35    \nframe=   83 fps= 12 q=52.0 size=       1KiB time=00:00:01.38 bitrate=   3.7kbits/s speed= 0.2x elapsed=0:00:06.90    \nframe=   91 fps= 12 q=50.0 size=       1KiB time=00:00:01.50 bitrate=   3.4kbits/s speed=0.202x elapsed=0:00:07.42    \nframe=   97 fps= 12 q=28.0 size=       1KiB time=00:00:01.61 bitrate=   3.1kbits/s speed=0.203x elapsed=0:00:07.96    \nframe=  103 fps= 12 q=48.0 size=       1KiB time=00:00:01.71 bitrate=   2.9kbits/s speed=0.202x elapsed=0:00:08.48    \nframe=  110 fps= 12 q=50.0 size=       1KiB time=00:00:01.83 bitrate=   2.8kbits/s speed=0.204x elapsed=0:00:09.00    \nframe=  117 fps= 12 q=50.0 size=       1KiB time=00:00:01.95 bitrate=   2.6kbits/s speed=0.205x elapsed=0:00:09.53    \nframe=  124 fps= 12 q=51.0 size=       1KiB time=00:00:02.06 bitrate=   2.5kbits/s speed=0.205x elapsed=0:00:10.06    \nframe=  130 fps= 12 q=51.0 size=     256KiB time=00:00:02.16 bitrate= 967.9kbits/s speed=0.205x elapsed=0:00:10.58    \nframe=  137 fps= 12 q=51.0 size=     256KiB time=00:00:02.28 bitrate= 918.5kbits/s speed=0.205x elapsed=0:00:11.13    \nframe=  143 fps= 12 q=50.0 size=     256KiB time=00:00:02.38 bitrate= 879.9kbits/s speed=0.204x elapsed=0:00:11.66    \nframe=  150 fps= 12 q=50.0 size=     256KiB time=00:00:02.50 bitrate= 838.9kbits/s speed=0.205x elapsed=0:00:12.18    \nframe=  157 fps= 12 q=51.0 size=     256KiB time=00:00:02.61 bitrate= 801.5kbits/s speed=0.206x elapsed=0:00:12.70    \nframe=  163 fps= 12 q=52.0 size=     256KiB time=00:00:02.71 bitrate= 772.0kbits/s speed=0.205x elapsed=0:00:13.24    \nframe=  169 fps= 12 q=52.0 size=     256KiB time=00:00:02.81 bitrate= 744.6kbits/s speed=0.204x elapsed=0:00:13.78    \nframe=  175 fps= 12 q=51.0 size=     256KiB time=00:00:02.91 bitrate= 719.0kbits/s speed=0.204x elapsed=0:00:14.30    \nframe=  181 fps= 12 q=50.0 size=     256KiB time=00:00:03.01 bitrate= 695.2kbits/s speed=0.203x elapsed=0:00:14.82    \nframe=  187 fps= 12 q=50.0 size=     256KiB time=00:00:03.11 bitrate= 672.9kbits/s speed=0.203x elapsed=0:00:15.34    \nframe=  195 fps= 12 q=49.0 size=     256KiB time=00:00:03.25 bitrate= 645.3kbits/s speed=0.205x elapsed=0:00:15.86    \nframe=  202 fps= 12 q=49.0 size=     256KiB time=00:00:03.36 bitrate= 622.9kbits/s speed=0.205x elapsed=0:00:16.38    \nframe=  208 fps= 12 q=50.0 size=     256KiB time=00:00:03.46 bitrate= 604.9kbits/s speed=0.205x elapsed=0:00:16.90    \nframe=  214 fps= 12 q=49.0 size=     256KiB time=00:00:03.56 bitrate= 588.0kbits/s speed=0.205x elapsed=0:00:17.43    \nframe=  221 fps= 12 q=49.0 size=     256KiB time=00:00:03.68 bitrate= 569.4kbits/s speed=0.205x elapsed=0:00:17.95    \nframe=  229 fps= 12 q=48.0 size=     256KiB time=00:00:03.81 bitrate= 549.5kbits/s speed=0.206x elapsed=0:00:18.48    \nframe=  236 fps= 12 q=28.0 size=     256KiB time=00:00:03.93 bitrate= 533.2kbits/s speed=0.207x elapsed=0:00:19.01    \nframe=  242 fps= 12 q=51.0 size=     256KiB time=00:00:04.03 bitrate= 520.0kbits/s speed=0.206x elapsed=0:00:19.55    \nframe=  249 fps= 12 q=52.0 size=     256KiB time=00:00:04.15 bitrate= 505.3kbits/s speed=0.206x elapsed=0:00:20.09    \nframe=  256 fps= 12 q=51.0 size=     256KiB time=00:00:04.26 bitrate= 491.5kbits/s speed=0.207x elapsed=0:00:20.62    \nframe=  265 fps= 13 q=49.0 size=     768KiB time=00:00:04.41 bitrate=1424.5kbits/s speed=0.209x elapsed=0:00:21.15    \nframe=  272 fps= 13 q=49.0 size=     768KiB time=00:00:04.53 bitrate=1387.8kbits/s speed=0.209x elapsed=0:00:21.68    \nframe=  276 fps= 12 q=48.0 size=     768KiB time=00:00:04.60 bitrate=1367.7kbits/s speed=0.207x elapsed=0:00:22.20    \nframe=  276 fps= 12 q=48.0 size=     768KiB time=00:00:04.60 bitrate=1367.7kbits/s speed=0.202x elapsed=0:00:22.72    \nframe=  276 fps= 12 q=48.0 size=     768KiB time=00:00:04.60 bitrate=1367.7kbits/s speed=0.197x elapsed=0:00:23.31    \nframe=  276 fps= 12 q=48.0 size=     768KiB time=00:00:04.60 bitrate=1367.7kbits/s speed=0.193x elapsed=0:00:23.85    \n[out#0/webm @ 000001a872717840] video:1031KiB audio:0KiB subtitle:0KiB other streams:0KiB global headers:0KiB muxing overhead: 0.267508%\nframe=  300 fps= 13 q=49.0 Lsize=    1034KiB time=00:00:05.00 bitrate=1694.2kbits/s speed=0.209x elapsed=0:00:23.96    \n",
  "seconds": 24.252739906311035,
  "probe_out": {}
}